<mxfile host="app.diagrams.net" modified="2023-03-06T13:53:00.484Z" agent="5.0 (Windows NT 10.0; Win64; x64) AppleWebKit/537.36 (KHTML, like Gecko) Chrome/110.0.0.0 Safari/537.36 Edg/110.0.1587.63" etag="QSg8fdrjDyMrueVBOnJS" version="20.8.23" type="github">
  <diagram name="Page-1" id="mg-I0OaaXEs_bJMDYchW">
    <mxGraphModel dx="1050" dy="561" grid="1" gridSize="10" guides="1" tooltips="1" connect="1" arrows="1" fold="1" page="1" pageScale="1" pageWidth="850" pageHeight="1100" math="0" shadow="0">
      <root>
        <mxCell id="0" />
        <mxCell id="1" parent="0" />
        <mxCell id="K22atGI9UmCMKORPTgVT-1" value="" style="rounded=0;whiteSpace=wrap;html=1;" vertex="1" parent="1">
          <mxGeometry x="60" y="30" width="120" height="60" as="geometry" />
        </mxCell>
        <mxCell id="K22atGI9UmCMKORPTgVT-2" value="LCD display Touchscreen" style="text;html=1;strokeColor=none;fillColor=none;align=center;verticalAlign=middle;whiteSpace=wrap;rounded=0;" vertex="1" parent="1">
          <mxGeometry x="70" y="45" width="100" height="35" as="geometry" />
        </mxCell>
        <mxCell id="K22atGI9UmCMKORPTgVT-3" value="" style="rounded=0;whiteSpace=wrap;html=1;" vertex="1" parent="1">
          <mxGeometry x="60" y="100" width="120" height="60" as="geometry" />
        </mxCell>
        <mxCell id="K22atGI9UmCMKORPTgVT-4" value="Ultrasonic Sensor" style="text;html=1;strokeColor=none;fillColor=none;align=center;verticalAlign=middle;whiteSpace=wrap;rounded=0;" vertex="1" parent="1">
          <mxGeometry x="70" y="110" width="100" height="40" as="geometry" />
        </mxCell>
        <mxCell id="K22atGI9UmCMKORPTgVT-6" value="" style="rounded=0;whiteSpace=wrap;html=1;" vertex="1" parent="1">
          <mxGeometry x="60" y="170" width="120" height="60" as="geometry" />
        </mxCell>
        <mxCell id="K22atGI9UmCMKORPTgVT-7" value="Infared Sensor" style="text;html=1;strokeColor=none;fillColor=none;align=center;verticalAlign=middle;whiteSpace=wrap;rounded=0;" vertex="1" parent="1">
          <mxGeometry x="70" y="180" width="100" height="40" as="geometry" />
        </mxCell>
        <mxCell id="K22atGI9UmCMKORPTgVT-8" value="" style="rounded=0;whiteSpace=wrap;html=1;" vertex="1" parent="1">
          <mxGeometry x="60" y="240" width="120" height="60" as="geometry" />
        </mxCell>
        <mxCell id="K22atGI9UmCMKORPTgVT-9" value="Micro Speaker" style="text;html=1;strokeColor=none;fillColor=none;align=center;verticalAlign=middle;whiteSpace=wrap;rounded=0;" vertex="1" parent="1">
          <mxGeometry x="70" y="250" width="100" height="40" as="geometry" />
        </mxCell>
        <mxCell id="K22atGI9UmCMKORPTgVT-10" value="" style="rounded=0;whiteSpace=wrap;html=1;" vertex="1" parent="1">
          <mxGeometry x="60" y="310" width="120" height="60" as="geometry" />
        </mxCell>
        <mxCell id="K22atGI9UmCMKORPTgVT-11" value="Operating System" style="text;html=1;strokeColor=none;fillColor=none;align=center;verticalAlign=middle;whiteSpace=wrap;rounded=0;" vertex="1" parent="1">
          <mxGeometry x="70" y="320" width="100" height="40" as="geometry" />
        </mxCell>
        <mxCell id="K22atGI9UmCMKORPTgVT-12" value="" style="rounded=0;whiteSpace=wrap;html=1;" vertex="1" parent="1">
          <mxGeometry x="60" y="380" width="120" height="60" as="geometry" />
        </mxCell>
        <mxCell id="K22atGI9UmCMKORPTgVT-13" value="GPS Tracker" style="text;html=1;strokeColor=none;fillColor=none;align=center;verticalAlign=middle;whiteSpace=wrap;rounded=0;" vertex="1" parent="1">
          <mxGeometry x="70" y="390" width="100" height="40" as="geometry" />
        </mxCell>
        <mxCell id="K22atGI9UmCMKORPTgVT-14" value="Micro Camera" style="rounded=0;whiteSpace=wrap;html=1;" vertex="1" parent="1">
          <mxGeometry x="60" y="450" width="120" height="60" as="geometry" />
        </mxCell>
        <mxCell id="K22atGI9UmCMKORPTgVT-15" value="Dbot" style="rounded=0;whiteSpace=wrap;html=1;" vertex="1" parent="1">
          <mxGeometry x="420" y="240" width="120" height="60" as="geometry" />
        </mxCell>
        <mxCell id="K22atGI9UmCMKORPTgVT-16" value="" style="endArrow=classic;html=1;rounded=0;entryX=1;entryY=0.5;entryDx=0;entryDy=0;" edge="1" parent="1" target="K22atGI9UmCMKORPTgVT-1">
          <mxGeometry width="50" height="50" relative="1" as="geometry">
            <mxPoint x="360" y="270" as="sourcePoint" />
            <mxPoint x="310" y="170" as="targetPoint" />
            <Array as="points">
              <mxPoint x="360" y="180" />
              <mxPoint x="360" y="60" />
            </Array>
          </mxGeometry>
        </mxCell>
        <mxCell id="K22atGI9UmCMKORPTgVT-17" value="" style="endArrow=none;html=1;rounded=0;entryX=0;entryY=0.5;entryDx=0;entryDy=0;" edge="1" parent="1" target="K22atGI9UmCMKORPTgVT-15">
          <mxGeometry width="50" height="50" relative="1" as="geometry">
            <mxPoint x="360" y="270" as="sourcePoint" />
            <mxPoint x="450" y="260" as="targetPoint" />
          </mxGeometry>
        </mxCell>
        <mxCell id="K22atGI9UmCMKORPTgVT-18" value="" style="endArrow=classic;html=1;rounded=0;entryX=1;entryY=0.5;entryDx=0;entryDy=0;" edge="1" parent="1" target="K22atGI9UmCMKORPTgVT-3">
          <mxGeometry width="50" height="50" relative="1" as="geometry">
            <mxPoint x="360" y="130" as="sourcePoint" />
            <mxPoint x="260" y="130" as="targetPoint" />
          </mxGeometry>
        </mxCell>
        <mxCell id="K22atGI9UmCMKORPTgVT-19" value="" style="endArrow=classic;html=1;rounded=0;entryX=1;entryY=0.5;entryDx=0;entryDy=0;" edge="1" parent="1" target="K22atGI9UmCMKORPTgVT-6">
          <mxGeometry width="50" height="50" relative="1" as="geometry">
            <mxPoint x="360" y="200" as="sourcePoint" />
            <mxPoint x="230" y="190" as="targetPoint" />
          </mxGeometry>
        </mxCell>
        <mxCell id="K22atGI9UmCMKORPTgVT-20" value="" style="endArrow=classic;html=1;rounded=0;entryX=1;entryY=0.5;entryDx=0;entryDy=0;" edge="1" parent="1" target="K22atGI9UmCMKORPTgVT-8">
          <mxGeometry width="50" height="50" relative="1" as="geometry">
            <mxPoint x="360" y="270" as="sourcePoint" />
            <mxPoint x="250" y="260" as="targetPoint" />
          </mxGeometry>
        </mxCell>
        <mxCell id="K22atGI9UmCMKORPTgVT-21" value="" style="endArrow=classic;html=1;rounded=0;entryX=1;entryY=0.5;entryDx=0;entryDy=0;" edge="1" parent="1" target="K22atGI9UmCMKORPTgVT-10">
          <mxGeometry width="50" height="50" relative="1" as="geometry">
            <mxPoint x="360" y="340" as="sourcePoint" />
            <mxPoint x="240" y="340" as="targetPoint" />
          </mxGeometry>
        </mxCell>
        <mxCell id="K22atGI9UmCMKORPTgVT-22" value="" style="endArrow=none;html=1;rounded=0;" edge="1" parent="1">
          <mxGeometry width="50" height="50" relative="1" as="geometry">
            <mxPoint x="360" y="340" as="sourcePoint" />
            <mxPoint x="360" y="270" as="targetPoint" />
          </mxGeometry>
        </mxCell>
        <mxCell id="K22atGI9UmCMKORPTgVT-23" value="" style="endArrow=none;html=1;rounded=0;" edge="1" parent="1">
          <mxGeometry width="50" height="50" relative="1" as="geometry">
            <mxPoint x="360" y="480" as="sourcePoint" />
            <mxPoint x="360" y="340" as="targetPoint" />
          </mxGeometry>
        </mxCell>
        <mxCell id="K22atGI9UmCMKORPTgVT-24" value="" style="endArrow=classic;html=1;rounded=0;entryX=1;entryY=0.5;entryDx=0;entryDy=0;" edge="1" parent="1" target="K22atGI9UmCMKORPTgVT-14">
          <mxGeometry width="50" height="50" relative="1" as="geometry">
            <mxPoint x="360" y="480" as="sourcePoint" />
            <mxPoint x="280" y="430" as="targetPoint" />
          </mxGeometry>
        </mxCell>
        <mxCell id="K22atGI9UmCMKORPTgVT-25" value="" style="endArrow=classic;html=1;rounded=0;entryX=1;entryY=0.5;entryDx=0;entryDy=0;" edge="1" parent="1" target="K22atGI9UmCMKORPTgVT-12">
          <mxGeometry width="50" height="50" relative="1" as="geometry">
            <mxPoint x="360" y="410" as="sourcePoint" />
            <mxPoint x="230" y="430" as="targetPoint" />
          </mxGeometry>
        </mxCell>
        <mxCell id="K22atGI9UmCMKORPTgVT-26" value="" style="endArrow=classic;html=1;rounded=0;" edge="1" parent="1">
          <mxGeometry width="50" height="50" relative="1" as="geometry">
            <mxPoint x="540" y="270" as="sourcePoint" />
            <mxPoint x="620" y="270" as="targetPoint" />
          </mxGeometry>
        </mxCell>
        <mxCell id="K22atGI9UmCMKORPTgVT-27" value="5G Connection" style="text;html=1;strokeColor=none;fillColor=none;align=center;verticalAlign=middle;whiteSpace=wrap;rounded=0;" vertex="1" parent="1">
          <mxGeometry x="550" y="230" width="60" height="30" as="geometry" />
        </mxCell>
        <mxCell id="K22atGI9UmCMKORPTgVT-28" value="Cloud Services" style="rounded=0;whiteSpace=wrap;html=1;" vertex="1" parent="1">
          <mxGeometry x="630" y="240" width="120" height="60" as="geometry" />
        </mxCell>
        <mxCell id="K22atGI9UmCMKORPTgVT-29" value="" style="endArrow=classic;html=1;rounded=0;exitX=0.44;exitY=1.043;exitDx=0;exitDy=0;exitPerimeter=0;" edge="1" parent="1" source="K22atGI9UmCMKORPTgVT-28">
          <mxGeometry width="50" height="50" relative="1" as="geometry">
            <mxPoint x="640" y="350" as="sourcePoint" />
            <mxPoint x="683" y="370" as="targetPoint" />
          </mxGeometry>
        </mxCell>
        <mxCell id="K22atGI9UmCMKORPTgVT-30" value="Users" style="rounded=0;whiteSpace=wrap;html=1;" vertex="1" parent="1">
          <mxGeometry x="630" y="370" width="120" height="60" as="geometry" />
        </mxCell>
      </root>
    </mxGraphModel>
  </diagram>
</mxfile>
